<svg width="90" height="60" viewBox="0 0 90 60" fill="none" xmlns="http://www.w3.org/2000/svg">
<path d="M36 22H39V29.5C39 30.3284 38.3284 31 37.5 31V31C36.6716 31 36 30.3284 36 29.5V22Z" fill="url(#paint0_linear_102_23)"/>
<path d="M41 22H44V29.5C44 30.3284 43.3284 31 42.5 31V31C41.6716 31 41 30.3284 41 29.5V22Z" fill="url(#paint1_linear_102_23)"/>
<path d="M46 22H49V29.5C49 30.3284 48.3284 31 47.5 31V31C46.6716 31 46 30.3284 46 29.5V22Z" fill="url(#paint2_linear_102_23)"/>
<path d="M52 22H55V29.5C55 30.3284 54.3284 31 53.5 31V31C52.6716 31 52 30.3284 52 29.5V22Z" fill="url(#paint3_linear_102_23)"/>
<rect x="26.5" y="23.5" width="37" height="13" stroke="url(#paint4_linear_102_23)" stroke-width="3"/>
<path d="M7.5 23.5H5C3.067 23.5 1.5 25.067 1.5 27V33C1.5 34.933 3.067 36.5 5 36.5H7.5V23.5Z" stroke="url(#paint5_linear_102_23)" stroke-width="3"/>
<path d="M13.5 9.5H11C9.067 9.5 7.5 11.067 7.5 13V47C7.5 48.933 9.067 50.5 11 50.5H13.5V9.5Z" stroke="url(#paint6_linear_102_23)" stroke-width="3"/>
<rect x="-1.5" y="1.5" width="13" height="57" rx="3.5" transform="matrix(-1 0 0 1 25 0)" stroke="url(#paint7_linear_102_23)" stroke-width="3"/>
<rect width="4" height="47" rx="2" transform="matrix(-1 0 0 1 22 7)" fill="url(#paint8_linear_102_23)" fill-opacity="0.45"/>
<path d="M82.5 23.5H85C86.933 23.5 88.5 25.067 88.5 27V33C88.5 34.933 86.933 36.5 85 36.5H82.5V23.5Z" stroke="url(#paint9_linear_102_23)" stroke-width="3"/>
<path d="M76.5 9.5H79C80.933 9.5 82.5 11.067 82.5 13V47C82.5 48.933 80.933 50.5 79 50.5H76.5V9.5Z" stroke="url(#paint10_linear_102_23)" stroke-width="3"/>
<rect x="63.5" y="1.5" width="13" height="57" rx="3.5" stroke="url(#paint11_linear_102_23)" stroke-width="3"/>
<rect x="68" y="7" width="4" height="47" rx="2" fill="url(#paint12_linear_102_23)" fill-opacity="0.45"/>
<defs>
<linearGradient id="paint0_linear_102_23" x1="37.5" y1="22" x2="37.5" y2="31" gradientUnits="userSpaceOnUse">
<stop stop-color="#3661FF"/>
<stop offset="1" stop-color="#BF26FF"/>
</linearGradient>
<linearGradient id="paint1_linear_102_23" x1="42.5" y1="22" x2="42.5" y2="31" gradientUnits="userSpaceOnUse">
<stop stop-color="#3661FF"/>
<stop offset="1" stop-color="#BF26FF"/>
</linearGradient>
<linearGradient id="paint2_linear_102_23" x1="47.5" y1="22" x2="47.5" y2="31" gradientUnits="userSpaceOnUse">
<stop stop-color="#3661FF"/>
<stop offset="1" stop-color="#BF26FF"/>
</linearGradient>
<linearGradient id="paint3_linear_102_23" x1="53.5" y1="22" x2="53.5" y2="31" gradientUnits="userSpaceOnUse">
<stop stop-color="#3661FF"/>
<stop offset="1" stop-color="#BF26FF"/>
</linearGradient>
<linearGradient id="paint4_linear_102_23" x1="45" y1="22" x2="45" y2="38" gradientUnits="userSpaceOnUse">
<stop stop-color="#3661FF"/>
<stop offset="1" stop-color="#BF26FF"/>
</linearGradient>
<linearGradient id="paint5_linear_102_23" x1="4.5" y1="22" x2="4.5" y2="38" gradientUnits="userSpaceOnUse">
<stop stop-color="#674DFF"/>
<stop offset="1" stop-color="#8E3CFF"/>
</linearGradient>
<linearGradient id="paint6_linear_102_23" x1="10.5" y1="8" x2="10.5" y2="52" gradientUnits="userSpaceOnUse">
<stop stop-color="#3661FF"/>
<stop offset="0.0001" stop-color="#4B59FF"/>
<stop offset="1" stop-color="#AB2FFF"/>
</linearGradient>
<linearGradient id="paint7_linear_102_23" x1="8" y1="0" x2="8" y2="60" gradientUnits="userSpaceOnUse">
<stop stop-color="#3661FF"/>
<stop offset="1" stop-color="#BF26FF"/>
</linearGradient>
<linearGradient id="paint8_linear_102_23" x1="2" y1="0" x2="2" y2="47" gradientUnits="userSpaceOnUse">
<stop stop-color="#3661FF"/>
<stop offset="1" stop-color="#BF26FF"/>
</linearGradient>
<linearGradient id="paint9_linear_102_23" x1="85.5" y1="22" x2="85.5" y2="38" gradientUnits="userSpaceOnUse">
<stop stop-color="#674DFF"/>
<stop offset="1" stop-color="#8E3CFF"/>
</linearGradient>
<linearGradient id="paint10_linear_102_23" x1="79.5" y1="8" x2="79.5" y2="52" gradientUnits="userSpaceOnUse">
<stop stop-color="#3661FF"/>
<stop offset="0.0001" stop-color="#4B59FF"/>
<stop offset="1" stop-color="#AB2FFF"/>
</linearGradient>
<linearGradient id="paint11_linear_102_23" x1="70" y1="0" x2="70" y2="60" gradientUnits="userSpaceOnUse">
<stop stop-color="#3661FF"/>
<stop offset="1" stop-color="#BF26FF"/>
</linearGradient>
<linearGradient id="paint12_linear_102_23" x1="70" y1="7" x2="70" y2="54" gradientUnits="userSpaceOnUse">
<stop stop-color="#3661FF"/>
<stop offset="1" stop-color="#BF26FF"/>
</linearGradient>
</defs>
</svg>
